# xmcd
#
# Track frame offsets: 
#        150
#        14745
#        29380
#        42917
#        56967
#        71942
#        87380
#        101372
#        115535
#        129840
#        145052
#        160460
#        175370
#        190350
#        204787
#        219995
#        233267
#        246475
#        260547
#        274667
#        287827
#
# Disc length: 4006 seconds
#
# Revision: 0
# Processed by: cddbd v1.5.2PL0 Copyright (c) Steve Scherf et al.
# Submitted via: ExactAudioCopy v0.99pb4
#
DISCID=350fa415
DTITLE=Frank Stokes - The Victor Recordings in Chronological Order (19
DTITLE=28-1929)
DYEAR=1900
DGENRE=Blues
TTITLE0=Downtown Blues (Take 1)
TTITLE1=Downtown Blues (Take 2)
TTITLE2=Bedtime Blues
TTITLE3=What's The Matter Blues
TTITLE4=Mistreatin' Blues
TTITLE5=It Won't Be Long Now (Take 1)
TTITLE6=It Won't Be Long Now (Take 2)
TTITLE7=Nehi Mamma Blues
TTITLE8=I Got Mine
TTITLE9=Stomp That Thing
TTITLE10='Taint Nobody's Business If I Do, Part 1
TTITLE11='Taint Nobody's Business If I Do, Part 2 (Take 1)
TTITLE12='Taint Nobody's Business If I Do, Part 2 (Take 2)
TTITLE13=Take Me Back
TTITLE14=How Long
TTITLE15=South Memphis Blues
TTITLE16=Bunker Hill Blues
TTITLE17=Right Now Blues
TTITLE18=Shiney Town Blues
TTITLE19=Frank Stokes' Dream
TTITLE20=Memphis Rounders Blues
EXTD=
EXTT0=
EXTT1=
EXTT2=
EXTT3=
EXTT4=
EXTT5=
EXTT6=
EXTT7=
EXTT8=
EXTT9=
EXTT10=
EXTT11=
EXTT12=
EXTT13=
EXTT14=
EXTT15=
EXTT16=
EXTT17=
EXTT18=
EXTT19=
EXTT20=
PLAYORDER=
